<?xml version="1.0" encoding="utf-8"?>
<!-- Svg Vector Icons : http://www.onlinewebfonts.com/icon -->
<!DOCTYPE svg PUBLIC "-//W3C//DTD SVG 1.1//EN" "http://www.w3.org/Graphics/SVG/1.1/DTD/svg11.dtd">
<svg version="1.1" xmlns="http://www.w3.org/2000/svg" xmlns:xlink="http://www.w3.org/1999/xlink" x="0px" y="0px" viewBox="0 0 1000 1000" enable-background="new 0 0 1000 1000" xml:space="preserve">
<metadata> Svg Vector Icons : http://www.onlinewebfonts.com/icon </metadata>
<g><g transform="translate(0.000000,511.000000) scale(0.100000,-0.100000)"><path d="M4181.1,4995.1C2235.9,4746.1,707,3423.3,228.4,1567.6C26.1,789.5,65-206.4,329.6-988.4c241.2-712,614.7-1299.4,1174.9-1836.3c400.7-385.2,700.3-591.4,1217.7-840.4c591.4-280.1,1038.8-385.1,1750.7-408.5c1194.4-42.8,1984.1,221.8,3077.3,1019.3c38.9,27.2,272.3-178.9,941.5-848.1c879.3-871.5,890.9-883.1,1054.3-883.1c217.9,0,354,128.4,354,338.5c0,136.2-46.7,190.6-894.8,1042.6l-898.7,898.7l120.6,151.7c599.1,754.8,972.6,1820.7,972.6,2785.6c0,2178.6-1517.3,4038.3-3660.9,4489.5C5250.9,4983.4,4430.1,5026.2,4181.1,4995.1z M5274.3,4255.9c785.8-136.2,1447.2-466.8,2015.2-1003.7c1949.1-1859.7,1462.8-5069.2-949.3-6248c-649.7-319-890.9-369.6-1711.8-365.7c-645.8,0-727.5,7.8-1042.6,105c-649.7,202.3-1190.5,525.2-1665.1,996c-486.3,486.3-828.7,1077.7-1007.6,1735.1c-128.4,463-147.8,1244.9-46.7,1731.2c151.7,747,470.7,1350,999.8,1902.4c498,521.3,988.2,824.8,1653.4,1031C4115,4322,4663.5,4360.9,5274.3,4255.9z"/><path d="M3500.3,3582.9c-447.4-159.5-774.2-369.6-1163.2-739.2c-575.8-552.5-914.2-1244.9-996-2054.2c-31.1-303.4-27.2-385.1,19.5-478.5c108.9-214,365.7-260.7,533-105c81.7,77.8,105,140.1,128.4,396.8c35,400.7,108.9,677,268.4,1011.5c256.8,544.7,774.2,1031,1346.1,1268.3c342.3,140,427.9,225.6,427.9,420.2C4064.4,3582.9,3823.2,3699.6,3500.3,3582.9z"/></g></g>
</svg>