<?xml version="1.0" standalone="no"?>
<!DOCTYPE svg PUBLIC "-//W3C//DTD SVG 20010904//EN"
 "http://www.w3.org/TR/2001/REC-SVG-20010904/DTD/svg10.dtd">
<svg version="1.0" xmlns="http://www.w3.org/2000/svg"
 width="626.000000pt" height="626.000000pt" viewBox="0 0 626.000000 626.000000"
 preserveAspectRatio="xMidYMid meet">
<metadata>
Created by potrace 1.16, written by Peter Selinger 2001-2019
</metadata>
<g transform="translate(0.000000,626.000000) scale(0.100000,-0.100000)"
fill="#000000" stroke="none">
<path d="M360 5809 c-84 -16 -184 -74 -244 -142 -158 -177 -150 -433 19 -602
65 -64 107 -87 286 -154 74 -28 211 -80 304 -116 94 -36 193 -75 220 -85 28
-10 86 -33 130 -50 44 -17 103 -40 130 -50 28 -10 151 -57 275 -105 300 -115
359 -138 465 -178 88 -33 391 -149 490 -187 241 -94 672 -259 990 -380 132
-50 278 -106 325 -125 83 -32 150 -58 280 -107 36 -14 112 -44 170 -66 58 -23
159 -61 225 -86 208 -78 238 -91 223 -103 -11 -8 -109 -55 -253 -118 -16 -8
-151 -68 -300 -135 -148 -67 -290 -131 -315 -142 -25 -11 -63 -28 -85 -38 -22
-10 -215 -98 -430 -195 -214 -97 -408 -185 -430 -195 -77 -35 -1289 -583
-1340 -605 -16 -8 -184 -84 -373 -169 -188 -86 -344 -156 -346 -156 -3 0 -37
-15 -78 -34 -40 -19 -154 -71 -253 -116 -99 -45 -200 -93 -225 -107 -75 -44
-151 -131 -185 -214 -61 -150 -33 -329 71 -447 62 -70 116 -106 210 -138 65
-22 90 -25 144 -21 103 9 61 -8 1050 439 146 66 279 126 295 133 88 39 602
272 673 306 46 21 85 39 87 39 2 0 32 13 67 29 35 16 86 39 113 51 28 12 73
33 100 45 49 23 582 264 640 290 17 7 156 70 310 140 154 70 300 136 325 147
44 20 240 108 1080 488 234 106 445 202 470 212 201 89 362 166 397 189 63 44
127 123 158 197 65 157 35 327 -80 459 -53 60 -113 96 -245 148 -52 20 -122
47 -155 60 -33 13 -139 54 -235 90 -169 64 -246 94 -490 188 -63 25 -212 82
-330 127 -118 45 -249 94 -290 110 -41 16 -129 50 -195 75 -66 25 -147 57
-180 70 -33 13 -168 65 -300 115 -132 50 -287 109 -345 132 -58 22 -145 56
-195 75 -49 19 -128 50 -175 68 -47 18 -130 50 -185 71 -55 20 -134 50 -175
66 -41 16 -97 37 -125 47 -27 10 -102 39 -165 64 -63 25 -164 64 -225 87 -60
23 -138 52 -173 66 -34 13 -90 34 -125 47 -34 14 -111 43 -172 67 -60 23 -148
57 -195 75 -47 18 -134 52 -195 75 -780 302 -787 304 -915 279z"/>
</g>
</svg>
