<?xml version="1.0" encoding="iso-8859-1"?>
<!-- Generator: Adobe Illustrator 19.0.0, SVG Export Plug-In . SVG Version: 6.00 Build 0)  -->
<svg version="1.1" id="Capa_1" xmlns="http://www.w3.org/2000/svg" xmlns:xlink="http://www.w3.org/1999/xlink" x="0px" y="0px"
	 viewBox="0 0 512 512" style="enable-background:new 0 0 512 512;" xml:space="preserve">
<g>
	<g>
		<path d="M350.366,427.957l-67.436-78.428c-2.875-3.344-7.065-5.267-11.474-5.267H162.472V241.686h38.647
			c5.922,0,11.298-3.454,13.761-8.839c2.462-5.384,1.559-11.711-2.314-16.19l-92.994-107.559c-2.874-3.324-7.052-5.235-11.447-5.235
			c-4.394,0-8.572,1.91-11.447,5.235L3.685,216.657c-3.873,4.48-4.777,10.806-2.314,16.19c2.462,5.385,7.839,8.839,13.761,8.839
			H53.78v156.922c0,29.966,24.38,54.346,54.346,54.346h230.767c5.914,0,11.285-3.445,13.753-8.82
			C355.112,438.76,354.221,432.44,350.366,427.957z M108.126,422.69c-13.279,0-24.082-10.803-24.082-24.082V226.554
			c0-8.357-6.775-15.132-15.132-15.132H48.218l59.906-69.291l59.907,69.291h-20.692c-8.357,0-15.132,6.775-15.132,15.132v132.84
			c0,8.357,6.775,15.132,15.132,15.132h117.171l41.414,48.164H108.126z"/>
	</g>
</g>
<g>
	<g>
		<path d="M510.629,279.153c-2.462-5.385-7.84-8.839-13.761-8.839H458.22V113.393c0-29.966-24.38-54.346-54.346-54.346H173.108
			c-5.914,0-11.285,3.445-13.752,8.82c-2.467,5.374-1.577,11.694,2.279,16.177l67.436,78.428c2.875,3.344,7.065,5.267,11.474,5.267
			H349.53v102.576h-38.648c-5.922,0-11.299,3.454-13.761,8.839c-2.462,5.384-1.559,11.711,2.314,16.19l92.994,107.559
			c2.874,3.324,7.052,5.235,11.447,5.235c4.394,0,8.573-1.91,11.446-5.235l92.994-107.559
			C512.188,290.864,513.092,284.537,510.629,279.153z M403.876,369.869l-59.907-69.291h20.693c8.357,0,15.132-6.775,15.132-15.132
			v-132.84c0-8.357-6.775-15.132-15.132-15.132H247.49l-41.414-48.164h197.799c13.279,0,24.082,10.803,24.082,24.082v172.054
			c0,8.357,6.775,15.132,15.132,15.132h20.693L403.876,369.869z"/>
	</g>
</g>
<g>
</g>
<g>
</g>
<g>
</g>
<g>
</g>
<g>
</g>
<g>
</g>
<g>
</g>
<g>
</g>
<g>
</g>
<g>
</g>
<g>
</g>
<g>
</g>
<g>
</g>
<g>
</g>
<g>
</g>
</svg>
